<?xml version="1.0" encoding="UTF-8"?>
<svg version="1.1" xmlns="http://www.w3.org/2000/svg" width="96" height="96">
  <path
    d="M0 0 C31.68 0 63.36 0 96 0 C96 31.68 96 63.36 96 96 C64.32 96 32.64 96 0 96 C0 64.32 0 32.64 0 0 Z"
    transform="translate(0,0)"
    fill="#19191C" />
  <path
    d="M0 0 C1.65 0.33 3.3 0.66 5 1 C5 3.31 5 5.62 5 8 C5.99 8.33 6.98 8.66 8 9 C8.33 8.67 8.66 8.34 9 8 C10.66617115 7.95936168 12.33388095 7.957279 14 8 C13.67 9.98 13.34 11.96 13 14 C13.66 13.34 14.32 12.68 15 12 C17.125 12.375 17.125 12.375 19 13 C18.67 14.65 18.34 16.3 18 18 C17.01 18 16.02 18 15 18 C15.7734375 19.299375 15.7734375 19.299375 16.5625 20.625 C18.19934354 24.46802396 18.11860899 26.04184511 17 30 C15.9375 32.375 15.9375 32.375 15 34 C16.32 34.66 17.64 35.32 19 36 C19 38.31 19 40.62 19 43 C13.49764734 38.37451629 8.22424184 33.56501073 3.0625 28.5625 C2.28326172 27.83740234 1.50402344 27.11230469 0.70117188 26.36523438 C-4.82482481 20.97484497 -4.82482481 20.97484497 -5.69140625 16.15234375 C-4.95771559 12.80721174 -4.45555332 12.16308047 -2 10 C-1.21201945 7.50556226 -1.21201945 7.50556226 -0.8125 4.8125 C-0.65394531 3.91144531 -0.49539062 3.01039062 -0.33203125 2.08203125 C-0.22246094 1.39496094 -0.11289062 0.70789063 0 0 Z"
    transform="translate(25,24)"
    fill="#E8E8E8" />
  <path
    d="M0 0 C1.32 0 2.64 0 4 0 C5.49590709 2.99181417 5.42743011 4.6416206 5 8 C2.07691516 13.74177378 -1.92073721 18.2184683 -6.77734375 22.39453125 C-7.18082031 22.92433594 -7.58429687 23.45414063 -8 24 C-7.6146949 26.0829559 -7.6146949 26.0829559 -7 28 C-6.58637207 27.57589844 -6.17274414 27.15179688 -5.74658203 26.71484375 C-3.87792079 24.80472667 -2.00160497 22.90231189 -0.125 21 C0.52597656 20.33226563 1.17695312 19.66453125 1.84765625 18.9765625 C2.78544922 18.02910156 2.78544922 18.02910156 3.7421875 17.0625 C4.3182373 16.47597656 4.89428711 15.88945313 5.48779297 15.28515625 C7 14 7 14 9 14 C9.37890625 16.625 9.37890625 16.625 9 20 C6.81689265 22.9145464 3.93686219 25.14815742 1.17773438 27.5 C-0.71698466 29.15545429 -0.71698466 29.15545429 -3 32 C-3.03079259 35.30136269 -3.03079259 35.30136269 -2 38 C-3.32 38 -4.64 38 -6 38 C-9.87604005 38.5001342 -12.08578869 40.49054026 -15 43 C-15.36923077 36.6 -15.36923077 36.6 -13.5 33.5625 C-13.005 33.046875 -12.51 32.53125 -12 32 C-12.350625 31.484375 -12.70125 30.96875 -13.0625 30.4375 C-14.69464782 26.19391567 -13.39679933 22.190398 -12 18 C-12.99 18 -13.98 18 -15 18 C-15 16.35 -15 14.7 -15 13 C-13.68 12.67 -12.36 12.34 -11 12 C-11 10.68 -11 9.36 -11 8 C-9.35 8 -7.7 8 -6 8 C-5.67 9.32 -5.34 10.64 -5 12 C-4.34 12 -3.68 12 -3 12 C-0.66633874 8.35365428 -0.92007291 5.23613578 -1 1 C-0.67 0.67 -0.34 0.34 0 0 Z"
    transform="translate(67,24)"
    fill="#E7E7E7" />
  <path
    d="M0 0 C0.66 0 1.32 0 2 0 C2.11638426 4.06225821 2.18731373 8.1240863 2.25 12.1875 C2.30027344 13.91323242 2.30027344 13.91323242 2.3515625 15.67382812 C2.36445312 16.78564453 2.37734375 17.89746094 2.390625 19.04296875 C2.41157227 20.06414795 2.43251953 21.08532715 2.45410156 22.13745117 C1.87861457 25.76518503 0.57415462 27.42613803 -2 30 C-4.75 30.3125 -4.75 30.3125 -7 30 C-7 28.68 -7 27.36 -7 26 C-6.01 25.34 -5.02 24.68 -4 24 C-3.54169593 21.94209301 -3.54169593 21.94209301 -3.59375 19.5703125 C-3.57183594 18.69246094 -3.54992188 17.81460938 -3.52734375 16.91015625 C-3.51832031 15.99105469 -3.50929687 15.07195313 -3.5 14.125 C-3.48207845 12.31492312 -3.45129142 10.50491764 -3.40625 8.6953125 C-3.39561523 7.4889917 -3.39561523 7.4889917 -3.38476562 6.25830078 C-2.90865875 3.46389179 -1.92503566 2.05372394 0 0 Z"
    transform="translate(48,46)"
    fill="#E7E7E7" />
  <path
    d="M0 0 C5.94 0 11.88 0 18 0 C18 0.99 18 1.98 18 3 C16.68 3 15.36 3 14 3 C14 4.32 14 5.64 14 7 C10.7 7 7.4 7 4 7 C4 5.68 4 4.36 4 3 C2.68 3 1.36 3 0 3 C0 2.01 0 1.02 0 0 Z"
    transform="translate(39,23)"
    fill="#7A7A7C" />
  <path
    d="M0 0 C1.65 0 3.3 0 5 0 C5.66 1.65 6.32 3.3 7 5 C4.42215154 7.64752004 2.08351902 9.94432065 -1 12 C-1 11.34 -1 10.68 -1 10 C-1.99 10 -2.98 10 -4 10 C-4 8.35 -4 6.7 -4 5 C-2.68 4.67 -1.36 4.34 0 4 C0 2.68 0 1.36 0 0 Z"
    transform="translate(56,32)"
    fill="#3A3A3D" />
  <path
    d="M0 0 C3.3221347 1.4623392 5.69313983 3.30806606 8.3125 5.8125 C9.03050781 6.47894531 9.74851562 7.14539062 10.48828125 7.83203125 C12 10 12 10 11.73046875 12.76171875 C11.48941406 13.50035156 11.24835937 14.23898438 11 15 C10.55269531 14.61328125 10.10539062 14.2265625 9.64453125 13.828125 C6.1478974 10.81609925 2.62592537 7.85678969 -1 5 C-0.67 3.35 -0.34 1.7 0 0 Z"
    transform="translate(26,38)"
    fill="#222225" />
  <path
    d="M0 0 C-0.33 1.98 -0.66 3.96 -1 6 C-0.34 5.34 0.32 4.68 1 4 C3.125 4.375 3.125 4.375 5 5 C4.67 6.65 4.34 8.3 4 10 C2.296875 10.77734375 2.296875 10.77734375 0 11 C-2.359375 9.12890625 -2.359375 9.12890625 -4.75 6.5625 C-5.54921875 5.71816406 -6.3484375 4.87382813 -7.171875 4.00390625 C-7.77515625 3.34261719 -8.3784375 2.68132813 -9 2 C-5.78360346 0.25434889 -3.67986596 -0.204437 0 0 Z"
    transform="translate(39,32)"
    fill="#414143" />
  <path
    d="M0 0 C0.99 0.33 1.98 0.66 3 1 C3.94921875 3.28515625 3.94921875 3.28515625 4.6875 6.0625 C4.93886719 6.98160156 5.19023438 7.90070312 5.44921875 8.84765625 C5.63097656 9.55792969 5.81273437 10.26820312 6 11 C5.27490234 11.63035156 5.27490234 11.63035156 4.53515625 12.2734375 C2.23878891 14.85612036 2.43447252 17.64835485 2 21 C1.34 21.33 0.68 21.66 0 22 C0 14.74 0 7.48 0 0 Z"
    transform="translate(50,46)"
    fill="#2F2F32" />
  <path
    d="M0 0 C0.99 0 1.98 0 3 0 C3 5.28 3 10.56 3 16 C2.67 16 2.34 16 2 16 C1.896875 14.88625 1.79375 13.7725 1.6875 12.625 C1.460625 11.42875 1.23375 10.2325 1 9 C0.01 8.34 -0.98 7.68 -2 7 C-1.42415568 4.61435923 -0.77772405 2.33317216 0 0 Z"
    transform="translate(42,51)"
    fill="#252527" />
  <path
    d="M0 0 C1.98 0.495 1.98 0.495 4 1 C3.67 2.32 3.34 3.64 3 5 C1.68 4.67 0.36 4.34 -1 4 C-0.67 2.68 -0.34 1.36 0 0 Z"
    transform="translate(53,36)"
    fill="#DEDEDE" />
  <path
    d="M0 0 C1.98 0.495 1.98 0.495 4 1 C3.67 2.32 3.34 3.64 3 5 C1.68 4.67 0.36 4.34 -1 4 C-0.67 2.68 -0.34 1.36 0 0 Z"
    transform="translate(40,36)"
    fill="#DFDFE0" />
  <path
    d="M0 0 C1.65 0 3.3 0 5 0 C5 1.32 5 2.64 5 4 C3.35 3.67 1.7 3.34 0 3 C0 2.01 0 1.02 0 0 Z"
    transform="translate(34,32)"
    fill="#DADADB" />
  <path
    d="M0 0 C2.475 0.495 2.475 0.495 5 1 C4.67 1.99 4.34 2.98 4 4 C2.68 4 1.36 4 0 4 C0 2.68 0 1.36 0 0 Z"
    transform="translate(57,32)"
    fill="#E2E2E2" />
</svg>
